<svg id="visual" viewBox="0 0 900 600" width="900" height="600" xmlns="http://www.w3.org/2000/svg" xmlns:xlink="http://www.w3.org/1999/xlink" version="1.1"><rect width="900" height="600" fill="#120401"></rect><g><g transform="translate(863 173)"><path d="M0 -13.1L13.1 0L0 13.1L-13.1 0Z" fill="#f27900"></path></g><g transform="translate(328 27)"><path d="M0 -5L5 0L0 5L-5 0Z" fill="#f27900"></path></g><g transform="translate(8 562)"><path d="M0 -7L7 0L0 7L-7 0Z" fill="#f27900"></path></g><g transform="translate(618 324)"><path d="M0 -12L12 0L0 12L-12 0Z" fill="#f27900"></path></g><g transform="translate(144 265)"><path d="M0 -4L4 0L0 4L-4 0Z" fill="#f27900"></path></g><g transform="translate(200 244)"><path d="M0 -6L6 0L0 6L-6 0Z" fill="#f27900"></path></g><g transform="translate(415 496)"><path d="M0 -9L9 0L0 9L-9 0Z" fill="#f27900"></path></g><g transform="translate(675 383)"><path d="M0 -10L10 0L0 10L-10 0Z" fill="#f27900"></path></g><g transform="translate(65 27)"><path d="M0 -11L11 0L0 11L-11 0Z" fill="#f27900"></path></g><g transform="translate(22 530)"><path d="M0 -9L9 0L0 9L-9 0Z" fill="#f27900"></path></g><g transform="translate(674 78)"><path d="M0 -5L5 0L0 5L-5 0Z" fill="#f27900"></path></g><g transform="translate(387 426)"><path d="M0 -8L8 0L0 8L-8 0Z" fill="#f27900"></path></g><g transform="translate(686 247)"><path d="M0 -11L11 0L0 11L-11 0Z" fill="#f27900"></path></g><g transform="translate(141 220)"><path d="M0 -10L10 0L0 10L-10 0Z" fill="#f27900"></path></g><g transform="translate(224 14)"><path d="M0 -5L5 0L0 5L-5 0Z" fill="#f27900"></path></g><g transform="translate(56 354)"><path d="M0 -4L4 0L0 4L-4 0Z" fill="#f27900"></path></g><g transform="translate(218 74)"><path d="M0 -12L12 0L0 12L-12 0Z" fill="#f27900"></path></g><g transform="translate(722 346)"><path d="M0 -12L12 0L0 12L-12 0Z" fill="#f27900"></path></g></g></svg>